<svg xmlns="http://www.w3.org/2000/svg" viewBox="0 0 512 512">
  <defs>
    <linearGradient id="bg" x1="0" y1="0" x2="1" y2="1"><stop offset="0" stop-color="#fffdf8"/><stop offset=".55" stop-color="#fff2dd"/><stop offset="1" stop-color="#eefbe9"/></linearGradient>
    <filter id="s" x="-20%" y="-20%" width="140%" height="140%"><feDropShadow dx="0" dy="10" stdDeviation="12" flood-color="#59733f" flood-opacity=".23"/></filter>
  </defs>
  <rect width="512" height="512" rx="112" fill="url(#bg)"/>
  <g opacity=".35" stroke="#efe6d9" stroke-width="2"><path d="M0 64h512M0 128h512M0 192h512M0 256h512M0 320h512M0 384h512M0 448h512M64 0v512M128 0v512M192 0v512M256 0v512M320 0v512M384 0v512M448 0v512"/></g>
  <g transform="translate(48 76)" filter="url(#s)">
    <ellipse cx="210" cy="306" rx="178" ry="42" fill="#8fd276" opacity=".82"/>
    <path d="M48 315c82-44 211-49 330-9-89 41-233 49-330 9z" fill="#7ac45e" opacity=".66"/>
    <g transform="translate(60 28)">
      <path d="M49 154C62 91 111 54 170 61c36 4 66 21 87 49 27-18 61-22 92-7 47 22 69 71 55 118-13 46-54 76-111 82-14 47-53 80-103 80-55 0-98-38-107-90-47-22-47-92-34-139z" fill="#c9f253" stroke="#4e8b39" stroke-width="13" stroke-linejoin="round"/>
      <circle cx="128" cy="96" r="52" fill="#c9f253" stroke="#4e8b39" stroke-width="13"/>
      <circle cx="318" cy="127" r="48" fill="#c9f253" stroke="#4e8b39" stroke-width="13"/>
      <circle cx="128" cy="101" r="10" fill="#33302b"/>
      <circle cx="315" cy="130" r="10" fill="#33302b"/>
      <circle cx="93" cy="170" r="25" fill="#ffa7b6" opacity=".62"/>
      <circle cx="328" cy="199" r="25" fill="#ffa7b6" opacity=".62"/>
      <path d="M177 176c14 23 43 24 56 0 12 28 45 27 60 4" fill="none" stroke="#5a8a41" stroke-width="9" stroke-linecap="round"/>
      <ellipse cx="196" cy="282" rx="77" ry="91" fill="#fff08b" opacity=".56"/>
      <path d="M104 270c-37 1-68 13-78 41 33 8 68 1 96-20" fill="#bdf048" stroke="#4e8b39" stroke-width="10" stroke-linejoin="round"/>
      <path d="M309 272c39 7 66 24 74 50-35 5-67-5-91-29" fill="#bdf048" stroke="#4e8b39" stroke-width="10" stroke-linejoin="round"/>
      <g transform="translate(96 169) rotate(-24)"><rect x="0" y="20" width="33" height="106" rx="16" fill="#4e5058"/><circle cx="16" cy="18" r="31" fill="#6f747d" stroke="#3b3c42" stroke-width="7"/><path d="M-8 14h49M-5 30h42M16-13v63M-8-1l48 39M40-3L-7 39" stroke="#444850" stroke-width="4" opacity=".65"/></g>
    </g>
    <g transform="translate(315 300)"><path d="M49 81c-41 1-67-15-65-39 3-32 47-40 75-20 15 11 34 31 61 30 7 19-27 28-71 29z" fill="#fff3bc" stroke="#b99048" stroke-width="7"/><circle cx="105" cy="31" r="35" fill="#b793ff" stroke="#7353c6" stroke-width="7"/><path d="M105 31c-12 7-17 22-4 31 24 14 51-33 10-52" fill="none" stroke="#7f65cb" stroke-width="6" stroke-linecap="round"/><path d="M13 16C4-6 13-19 25 4M43 11c-6-20 7-33 18-13" stroke="#b99048" stroke-width="6" fill="none" stroke-linecap="round"/><circle cx="27" cy="39" r="5" fill="#5b4a2e"/><circle cx="59" cy="40" r="5" fill="#5b4a2e"/><path d="M37 51c8 10 22 9 29-1" stroke="#d48a88" stroke-width="5" fill="none" stroke-linecap="round"/></g>
    <g fill="none" stroke-linecap="round" stroke-width="11" opacity=".82"><path d="M67 85v80" stroke="#7fca58"/><path d="M38 128c-29-14-19-45 11-33 20 8 18 33-11 33zM88 129c30-16 27-45-5-34-19 7-22 32 5 34zM52 76C21 53 37 19 65 41c19 15 14 39-13 35z" fill="#a7e870" stroke="#7fca58"/></g>
    <g font-family="system-ui, sans-serif" font-size="44" font-weight="900" opacity=".65"><text x="95" y="42" fill="#ff86ab" transform="rotate(-15 95 42)">♪</text><text x="326" y="52" fill="#8d71ff" transform="rotate(12 326 52)">♫</text><text x="405" y="143" fill="#ff8fb4" transform="rotate(14 405 143)">♪</text></g>
  </g>
</svg>