<svg xmlns="http://www.w3.org/2000/svg" viewBox="0 0 512 512">
<defs><linearGradient id="bg" x1="0" y1="0" x2="1" y2="1"><stop offset="0%" stop-color="#fff4cf"/><stop offset="55%" stop-color="#ffd7e7"/><stop offset="100%" stop-color="#d9d4ff"/></linearGradient><filter id="shadow" x="-20%" y="-20%" width="140%" height="140%"><feDropShadow dx="0" dy="10" stdDeviation="12" flood-color="#4b5278" flood-opacity=".22"/></filter></defs>
<rect width="512" height="512" rx="112" fill="url(#bg)"/>
<g filter="url(#shadow)"><rect x="88" y="278" width="336" height="60" rx="18" fill="#7f6cff"/><rect x="105" y="228" width="302" height="56" rx="16" fill="#91bbff"/><rect x="122" y="181" width="268" height="53" rx="15" fill="#ff8db6"/><rect x="140" y="137" width="232" height="50" rx="14" fill="#ffd66b"/><rect x="160" y="97" width="192" height="47" rx="13" fill="#9de6cf"/></g><g transform="translate(255 153)"><path d="M77 33 L105 2 L117 45 Z" fill="#fff7e9" stroke="#2f3654" stroke-width="10"/><path d="M21 45 L31 2 L59 33 Z" fill="#fff7e9" stroke="#2f3654" stroke-width="10"/><path d="M16 45 C27 18 50 6 72 8 C101 11 122 33 122 65 C122 103 94 128 60 126 C29 124 6 101 7 70 C8 60 11 51 16 45Z" fill="#fff7e9" stroke="#2f3654" stroke-width="10"/><circle cx="45" cy="66" r="7" fill="#2f3654"/><circle cx="85" cy="66" r="7" fill="#2f3654"/><path d="M64 78 L72 78 L68 85 Z" fill="#ff8db6" stroke="#2f3654" stroke-width="4"/><path d="M52 92 C59 100 77 100 84 92" fill="none" stroke="#2f3654" stroke-width="5" stroke-linecap="round"/></g>
<text x="256" y="430" text-anchor="middle" font-family="system-ui, sans-serif" font-size="38" font-weight="900" fill="#2f3654">積み六法＋白ねこ</text>
</svg>