<svg xmlns="http://www.w3.org/2000/svg" viewBox="0 0 512 512">
<defs><linearGradient id="bg" x1="0" y1="0" x2="1" y2="1"><stop offset="0%" stop-color="#fff4cf"/><stop offset="55%" stop-color="#ffd7e7"/><stop offset="100%" stop-color="#d9d4ff"/></linearGradient><filter id="shadow" x="-20%" y="-20%" width="140%" height="140%"><feDropShadow dx="0" dy="10" stdDeviation="12" flood-color="#4b5278" flood-opacity=".22"/></filter></defs>
<rect width="512" height="512" rx="112" fill="url(#bg)"/>
<g filter="url(#shadow)"><path d="M72 158 C132 128 195 132 256 170 C317 132 380 128 440 158 V334 C372 306 312 312 256 350 C200 312 140 306 72 334 Z" fill="#fffdf4" stroke="#2f3654" stroke-width="12"/><path d="M256 170 V350" stroke="#2f3654" stroke-width="8" opacity=".35"/><path d="M105 194 H205 M105 226 H218 M105 258 H198 M307 194 H407 M294 226 H407 M314 258 H407" stroke="#7f6cff" stroke-width="10" stroke-linecap="round" opacity=".65"/></g><g transform="translate(190 71)"><path d="M37 42 L18 3 L70 32 Z" fill="#2f3654"/><path d="M118 42 L137 3 L85 32 Z" fill="#2f3654"/><ellipse cx="78" cy="71" rx="66" ry="58" fill="#2f3654"/><ellipse cx="78" cy="83" rx="48" ry="38" fill="#fff7e9"/><circle cx="55" cy="70" r="7" fill="#fff7e9"/><circle cx="101" cy="70" r="7" fill="#fff7e9"/><path d="M75 82 L82 82 L78 89 Z" fill="#ff8db6"/></g>
<text x="256" y="430" text-anchor="middle" font-family="system-ui, sans-serif" font-size="38" font-weight="900" fill="#2f3654">黒ねこ＋開いた六法</text>
</svg>