<svg xmlns="http://www.w3.org/2000/svg" viewBox="0 0 512 512">
<defs><linearGradient id="bg" x1="0" y1="0" x2="1" y2="1"><stop offset="0%" stop-color="#fff4cf"/><stop offset="55%" stop-color="#ffd7e7"/><stop offset="100%" stop-color="#d9d4ff"/></linearGradient><filter id="shadow" x="-20%" y="-20%" width="140%" height="140%"><feDropShadow dx="0" dy="10" stdDeviation="12" flood-color="#4b5278" flood-opacity=".22"/></filter></defs>
<rect width="512" height="512" rx="112" fill="url(#bg)"/>
<g filter="url(#shadow)"><rect x="116" y="282" width="280" height="60" rx="18" fill="#fff7e9" stroke="#2f3654" stroke-width="10"/><rect x="138" y="238" width="236" height="52" rx="16" fill="#ffd66b"/><path d="M256 91 V303" stroke="#2f3654" stroke-width="12" stroke-linecap="round"/><path d="M173 142 H339" stroke="#2f3654" stroke-width="10" stroke-linecap="round"/><path d="M174 142 L124 236 H224 Z" fill="#91bbff" stroke="#2f3654" stroke-width="8"/><path d="M338 142 L288 236 H388 Z" fill="#ff8db6" stroke="#2f3654" stroke-width="8"/><circle cx="256" cy="88" r="27" fill="#9de6cf" stroke="#2f3654" stroke-width="9"/></g><g transform="translate(197 226) scale(.76)"><path d="M77 33 L105 2 L117 45 Z" fill="#fff7e9" stroke="#2f3654" stroke-width="10"/><path d="M21 45 L31 2 L59 33 Z" fill="#fff7e9" stroke="#2f3654" stroke-width="10"/><path d="M16 45 C27 18 50 6 72 8 C101 11 122 33 122 65 C122 103 94 128 60 126 C29 124 6 101 7 70 C8 60 11 51 16 45Z" fill="#fff7e9" stroke="#2f3654" stroke-width="10"/></g>
<text x="256" y="430" text-anchor="middle" font-family="system-ui, sans-serif" font-size="38" font-weight="900" fill="#2f3654">天秤ねこ</text>
</svg>