<svg xmlns="http://www.w3.org/2000/svg" viewBox="0 0 512 512">
<defs><linearGradient id="bg" x1="0" y1="0" x2="1" y2="1"><stop offset="0%" stop-color="#fff4cf"/><stop offset="55%" stop-color="#ffd7e7"/><stop offset="100%" stop-color="#d9d4ff"/></linearGradient><filter id="shadow" x="-20%" y="-20%" width="140%" height="140%"><feDropShadow dx="0" dy="10" stdDeviation="12" flood-color="#4b5278" flood-opacity=".22"/></filter></defs>
<rect width="512" height="512" rx="112" fill="url(#bg)"/>
<g filter="url(#shadow)"><rect x="105" y="91" width="302" height="262" rx="36" fill="#7f6cff" stroke="#2f3654" stroke-width="10"/><rect x="137" y="122" width="238" height="202" rx="24" fill="#fff7e9"/><path d="M328 91 V225 L301 205 L274 225 V91 Z" fill="#ff8db6" stroke="#2f3654" stroke-width="8"/><path d="M165 173 H252 M165 211 H283 M165 249 H240" stroke="#2f3654" stroke-width="11" stroke-linecap="round" opacity=".55"/></g><g transform="translate(225 245)"><ellipse cx="35" cy="50" rx="72" ry="44" fill="#fff7e9" stroke="#2f3654" stroke-width="10"/><path d="M-16 23 L-36 -14 L11 14 Z M78 23 L100 -13 L54 14 Z" fill="#fff7e9" stroke="#2f3654" stroke-width="10"/><path d="M12 48 C22 57 48 57 58 48" stroke="#2f3654" stroke-width="5" fill="none"/><circle cx="10" cy="38" r="6" fill="#2f3654"/><circle cx="61" cy="38" r="6" fill="#2f3654"/></g>
<text x="256" y="430" text-anchor="middle" font-family="system-ui, sans-serif" font-size="38" font-weight="900" fill="#2f3654">しおりで昼寝ねこ</text>
</svg>